<svg xmlns="http://www.w3.org/2000/svg" style="display:none">
  <symbol id="icon-mail" viewBox="0 0 24 24">
    <path fill="currentColor" d="M20 4H4c-1.1 0-2 .9-2 2v12c0 1.1.9 2 2 2h16c1.1 0 2-.9 2-2V6c0-1.1-.9-2-2-2zm0 4-8 5L4 8V6l8 5 8-5v2z"/>
  </symbol>

  <symbol id="icon-telegram" viewBox="0 0 24 24">
    <path fill="currentColor" d="M21.43 3.36L2.92 10.1c-.98.36-.95 1.28.2 1.61l4.9 1.44 1.82 5.6c.32.98 1.22 1.09 1.98.53L14 18.1l5.84-8.97c.58-.86.06-1.39-.41-1.02z"/>
  </symbol>

  <symbol id="icon-github" viewBox="0 0 24 24">
    <path fill="currentColor" d="M12 .5C5.73.5.75 5.48.75 11.75c0 4.96 3.22 9.16 7.7 10.64.56.1.76-.24.76-.54 0-.27-.01-1.16-.02-2.1-3.13.68-3.79-1.51-3.79-1.51-.51-1.3-1.24-1.65-1.24-1.65-1.01-.69.08-.68.08-.68 1.12.08 1.71 1.15 1.71 1.15.99 1.69 2.6 1.2 3.24.92.1-.72.39-1.21.71-1.49-2.5-.29-5.14-1.26-5.14-5.6 0-1.24.44-2.26 1.16-3.06-.12-.29-.5-1.46.11-3.05 0 0 .95-.3 3.12 1.16a10.9 10.9 0 012.84-.38c.96 0 1.92.13 2.84.38 2.17-1.46 3.12-1.16 3.12-1.16.61 1.59.23 2.76.11 3.05.72.8 1.16 1.82 1.16 3.06 0 4.35-2.65 5.31-5.17 5.59.4.35.75 1.03.75 2.08 0 1.5-.02 2.71-.02 3.08 0 .3.2.65.77.54 4.48-1.48 7.69-5.68 7.69-10.64C23.25 5.48 18.27.5 12 .5z"/>
  </symbol>

  <symbol id="icon-instagram" viewBox="0 0 24 24">
    <path fill="currentColor" d="M7 2h10a5 5 0 015 5v10a5 5 0 01-5 5H7a5 5 0 01-5-5V7a5 5 0 015-5zm5 6.5A4.5 4.5 0 1016.5 13 4.5 4.5 0 0012 8.5zm6.5-3.5a1.2 1.2 0 11-1.2-1.2 1.2 1.2 0 011.2 1.2z"/>
  </symbol>

  <symbol id="icon-cake" viewBox="0 0 24 24">
    <path fill="currentColor" d="M12 2c.6 0 1 .4 1 1v1h-2V3c0-.6.4-1 1-1zM19 8v2H5V8c0-1.7 1.3-3 3-3 .5 0 1 .2 1.4.5C10.6 5 11.3 5 12 5s1.4 0 1.6-.5c.4-.3.9-.5 1.4-.5 1.7 0 3 1.3 3 3zM5 21h14v-7H5v7z"/>
  </symbol>

  <symbol id="icon-globe" viewBox="0 0 24 24">
    <path fill="currentColor" d="M12 2a10 10 0 100 20 10 10 0 000-20zm6.9 7h-3.2a15.6 15.6 0 00-1.5-4.2A8 8 0 0118.9 9zM12 4c.7 1.3 1.2 3 1.5 5h-3c.3-2 .8-3.7 1.5-5zM4.2 9a8 8 0 011.7-2.2c-.6 1.4-1 3-1.2 4.2H4.2zM4.2 15h3.2a15.6 15.6 0 001.5 4.2A8 8 0 014.2 15zM12 20c-.7-1.3-1.2-3-1.5-5h3c-.3 2-.8 3.7-1.5 5zm3.5-1.8c.5-.6 1-1.4 1.5-2.4h3a8 8 0 01-4.5 2.4z"/>
  </symbol>

  <symbol id="icon-heart" viewBox="0 0 24 24">
    <path fill="currentColor" d="M12 21s-7-4.6-9-7.3C-1.2 9.4 4 4.5 9.6 7.1 11 8 12 9 12 9s1-.9 2.4-1.9C20 4.5 25.2 9.4 21 13.7 19 16.4 12 21 12 21z"/>
  </symbol>

  <symbol id="icon-cat" viewBox="0 0 24 24">
    <path fill="currentColor" d="M12 2l2.2 3.2L18 6l-2 2 1 3-3 1-2 3-2-3-3-1 1-3L6 6l3.8-.8L12 2z"/>
  </symbol>

  <symbol id="icon-kind" viewBox="0 0 24 24">
    <path fill="currentColor" d="M12 21l-1-1C6 15.4 4 13.6 4 10.5 4 7.5 6.5 5 9.5 5c1.7 0 3.2.9 4 2.2C14.3 5.9 15.8 5 17.5 5 20.5 5 23 7.5 23 10.5c0 3.1-2 4.9-7 9.5l-1 1z"/>
  </symbol>

  <symbol id="icon-noentry" viewBox="0 0 24 24">
    <path fill="currentColor" d="M12 2a10 10 0 1010 10A10 10 0 0012 2zm5 11H7V11h10z"/>
  </symbol>

  <symbol id="icon-code" viewBox="0 0 24 24">
    <path fill="currentColor" d="M8.7 17.3L3.4 12l5.3-5.3L10.1 8 6.8 11.3 10.1 14.6 8.7 17.3zM15.3 6.7L20.6 12l-5.3 5.3L13.9 16l3.3-3.3L13.9 9 15.3 6.7z"/>
  </symbol>
</svg>